# File created by Blade
# Date/Time:  Wed Jan 21 16:09:38 2015
# Frame Rate: 120.000 fps
#------------------------------------------------------
:FULLY-SPECIFIED
:DEGREES
372
root 12.853242 33.257219 -21.355638 -182.028749 77.209226 -236.831059
Spine 37.667292 -8.034705 1.161748
Head -26.544821 -4.856851 4.456325
LeftShoulder -9.655863 -43.730604 23.297188
LeftArm -29.703754 -3.304917 -14.313380
LeftForeArm -17.715321 -0.000000 -0.615158
LeftHand -11.403544 -0.000000 11.320477
LeftHandThumb1 -26.253704 0.000000 33.147579
RightShoulder -10.518600 3.386319 -16.521939
RightArm -29.919773 46.383065 16.181736
RightForeArm -9.566844 -0.000000 13.078278
RightHand -19.390118 -0.000000 -16.723187
RightHandThumb1 -24.326973 -0.000000 -32.862282
LeftUpLeg -31.585845 -7.141361 -15.407497
LeftLeg -13.889441 -0.000000 0.000000
LeftFoot -8.494771 28.447260 16.033805
LeftToeBase -137.693718 -0.000000 0.000000
RightUpLeg -75.724143 -4.980669 -8.197228
RightLeg -4.669567 -0.000000 0.000000
RightFoot 9.736623 -27.585507 0.821491
RightToeBase 28.439013 -0.000000 -0.000000
373
root 12.839454 33.255411 -21.357528 -182.039403 77.177297 -237.099901
Spine 38.408838 -8.109635 1.276334
Head -26.965620 -4.887627 4.506921
LeftShoulder -9.593760 -43.535439 23.206979
LeftArm -29.777873 -3.473274 -14.367320
LeftForeArm -18.202845 -0.000000 -0.725736
LeftHand -11.724983 -0.000000 11.311379
LeftHandThumb1 -26.253704 0.000000 33.147579
RightShoulder -10.507904 3.412632 -16.540551
RightArm -30.023326 46.263003 16.206820
RightForeArm -8.725567 -0.000000 12.817969
RightHand -19.228871 0.000000 -17.107150
RightHandThumb1 -24.326973 -0.000000 -32.862282
LeftUpLeg -31.867274 -7.241123 -15.431548
LeftLeg -13.825151 -0.000000 0.000000
LeftFoot -8.534016 28.440119 16.075581
LeftToeBase -137.695731 -0.000000 0.000000
RightUpLeg -76.015561 -5.087415 -8.175580
RightLeg -4.642366 -0.000000 0.000000
RightFoot 9.710413 -27.497602 0.945932
RightToeBase 28.475370 -0.000000 -0.000000
374
root 12.826372 33.251759 -21.356456 -182.104091 77.188579 -237.439455
Spine 39.120907 -8.162481 1.334640
Head -27.376820 -4.836333 4.568481
LeftShoulder -9.556150 -43.357389 23.148322
LeftArm -29.896270 -3.576625 -14.413341
LeftForeArm -18.831626 0.000000 -0.889795
LeftHand -11.513029 -0.000000 11.227796
LeftHandThumb1 -26.253704 0.000000 33.147579
RightShoulder -10.454070 3.356583 -16.543782
RightArm -30.276832 46.344128 16.194206
RightForeArm -8.066201 -0.000000 12.851817
RightHand -19.323475 -0.000000 -17.188271
RightHandThumb1 -24.326973 -0.000000 -32.862282
LeftUpLeg -32.149823 -7.316752 -15.450505
LeftLeg -13.805191 -0.000000 0.000000
LeftFoot -8.536207 28.462242 16.142311
LeftToeBase -137.625206 -0.000000 0.000000
RightUpLeg -76.330295 -5.115021 -8.237036
RightLeg -4.578224 -0.000000 0.000000
RightFoot 9.685069 -27.463894 0.917814
RightToeBase 28.389343 -0.000000 -0.000000
375
root 12.809710 33.248625 -21.356128 -182.151085 77.160979 -237.790959
Spine 39.791848 -8.251457 1.384086
Head -27.746050 -4.772588 4.620665
LeftShoulder -9.488665 -43.321282 23.105704
LeftArm -30.145104 -3.556006 -14.400002
LeftForeArm -19.392540 -0.000000 -0.845266
LeftHand -11.787465 -0.000000 11.191422
LeftHandThumb1 -26.253704 0.000000 33.147579
RightShoulder -10.401164 3.316497 -16.539079
RightArm -30.530336 46.414597 16.157934
RightForeArm -7.507296 -0.000000 12.851399
RightHand -19.437810 0.000000 -16.926444
RightHandThumb1 -24.326973 -0.000000 -32.862282
LeftUpLeg -32.465700 -7.447178 -15.468280
LeftLeg -13.770251 -0.000000 0.000000
LeftFoot -8.545588 28.485251 16.166233
LeftToeBase -137.579613 -0.000000 0.000000
RightUpLeg -76.677424 -5.202351 -8.270492
RightLeg -4.525479 -0.000000 0.000000
RightFoot 9.647331 -27.408693 0.948073
RightToeBase 28.379192 -0.000000 -0.000000
376
root 12.798811 33.246430 -21.352386 -182.006194 77.155956 -237.896772
Spine 40.530769 -8.312451 1.520284
Head -28.119085 -4.666101 4.587076
LeftShoulder -9.383298 -43.117863 22.966438
LeftArm -30.287797 -3.666117 -14.418822
LeftForeArm -19.913750 -0.000000 -0.915510
LeftHand -11.736485 -0.000000 10.965662
LeftHandThumb1 -26.253704 0.000000 33.147579
RightShoulder -10.327377 3.371423 -16.596753
RightArm -31.058907 46.512646 15.964482
RightForeArm -7.096369 -0.000000 13.025418
RightHand -19.703270 0.000000 -16.523623
RightHandThumb1 -24.326973 -0.000000 -32.862282
LeftUpLeg -32.726115 -7.529198 -15.437893
LeftLeg -13.758493 -0.000000 0.000000
LeftFoot -8.520759 28.487372 16.237779
LeftToeBase -137.510328 -0.000000 0.000000
RightUpLeg -76.955560 -5.259143 -8.196882
RightLeg -4.516765 -0.000000 0.000000
RightFoot 9.650595 -27.339650 1.043456
RightToeBase 28.308750 -0.000000 -0.000000
377
root 12.782978 33.243022 -21.354544 -181.971377 77.099978 -238.187926
Spine 41.175458 -8.418128 1.626607
Head -28.500229 -4.679109 4.596169
LeftShoulder -9.343186 -42.916600 22.889671
LeftArm -30.405865 -3.810535 -14.440496
LeftForeArm -20.377527 0.000000 -0.984540
LeftHand -11.785182 -0.000000 10.806144
LeftHandThumb1 -26.253704 0.000000 33.147579
RightShoulder -10.336928 3.181823 -16.590512
RightArm -31.214929 46.675127 16.040570
RightForeArm -6.620950 -0.000000 13.057165
RightHand -19.664703 0.000000 -16.657545
RightHandThumb1 -24.326973 -0.000000 -32.862282
LeftUpLeg -33.045020 -7.686181 -15.453737
LeftLeg -13.752176 -0.000000 0.000000
LeftFoot -8.511255 28.486331 16.250207
LeftToeBase -137.495829 -0.000000 0.000000
RightUpLeg -77.325217 -5.373227 -8.244885
RightLeg -4.450923 -0.000000 0.000000
RightFoot 9.634592 -27.302092 0.981297
RightToeBase 28.413251 -0.000000 -0.000000
378
root 12.774997 33.241160 -21.356372 -181.984036 77.085821 -238.408586
Spine 42.023540 -8.483378 1.705350
Head -29.020262 -4.580657 4.658942
LeftShoulder -9.341808 -42.785058 22.895966
LeftArm -30.596754 -3.961132 -14.486385
LeftForeArm -20.861600 -0.000000 -1.003119
LeftHand -11.727025 -0.000000 10.784738
LeftHandThumb1 -26.253704 0.000000 33.147579
RightShoulder -10.315982 3.232596 -16.586850
RightArm -31.732272 46.866518 15.763576
RightForeArm -5.934951 -0.000000 13.295573
RightHand -19.781840 -0.000000 -16.344982
RightHandThumb1 -24.326973 -0.000000 -32.862282
LeftUpLeg -33.215961 -7.807440 -15.438722
LeftLeg -13.821103 -0.000000 0.000000
LeftFoot -8.445032 28.516191 16.189951
LeftToeBase -137.499751 -0.000000 0.000000
RightUpLeg -77.541963 -5.427216 -8.213303
RightLeg -4.467413 -0.000000 0.000000
RightFoot 9.664400 -27.281850 0.945301
RightToeBase 28.455844 -0.000000 -0.000000
379
root 12.763133 33.239375 -21.357869 -182.056433 77.066701 -238.733740
Spine 42.766936 -8.539623 1.776351
Head -29.421677 -4.640689 4.761413
LeftShoulder -9.281691 -42.609098 22.885523
LeftArm -30.749479 -4.229583 -14.478567
LeftForeArm -21.193272 0.000000 -1.140702
LeftHand -11.698085 0.000000 10.671697
LeftHandThumb1 -26.253704 0.000000 33.147579
RightShoulder -10.295534 3.108299 -16.559518
RightArm -31.857131 46.937607 15.815104
RightForeArm -5.643320 -0.000000 13.161319
RightHand -19.764780 0.000000 -16.479852
RightHandThumb1 -24.326973 -0.000000 -32.862282
LeftUpLeg -33.442012 -7.886265 -15.489001
LeftLeg -13.862790 -0.000000 0.000000
LeftFoot -8.403195 28.496633 16.146858
LeftToeBase -137.490844 -0.000000 0.000000
RightUpLeg -77.835683 -5.487077 -8.215396
RightLeg -4.433064 -0.000000 0.000000
RightFoot 9.701219 -27.284694 1.034664
RightToeBase 28.223011 -0.000000 -0.000000
